<svg xmlns="http://www.w3.org/2000/svg" xmlns:xlink="http://www.w3.org/1999/xlink" viewBox="0 0 164.0527 244.871"><defs><style>.cls-1{isolation:isolate;}.cls-2{fill:url(#linear-gradient);}.cls-3{fill:#231f20;opacity:0.25;mix-blend-mode:multiply;}.cls-4{fill:url(#linear-gradient-2);}.cls-5{opacity:0.19;mix-blend-mode:screen;}.cls-6{fill:url(#linear-gradient-3);}.cls-7{fill:url(#linear-gradient-4);}.cls-8{fill:url(#linear-gradient-5);}</style><linearGradient id="linear-gradient" x1="0.5036" y1="81.7284" x2="163.5491" y2="81.7284" gradientUnits="userSpaceOnUse"><stop offset="0" stop-color="#a18fff"/><stop offset="0.0282" stop-color="#b7a9ff"/><stop offset="0.0652" stop-color="#cdc4ff"/><stop offset="0.1078" stop-color="#e0daff"/><stop offset="0.1575" stop-color="#eeebff"/><stop offset="0.219" stop-color="#f8f6ff"/><stop offset="0.3052" stop-color="#fdfdff"/><stop offset="0.5447" stop-color="#fff"/><stop offset="0.7214" stop-color="#fdfdfe"/><stop offset="0.7851" stop-color="#f8f6fc"/><stop offset="0.8305" stop-color="#efebf9"/><stop offset="0.8672" stop-color="#e1daf4"/><stop offset="0.8986" stop-color="#cfc4ed"/><stop offset="0.9265" stop-color="#b9a8e5"/><stop offset="0.9517" stop-color="#9f88db"/><stop offset="0.9748" stop-color="#8162d0"/><stop offset="0.9954" stop-color="#6039c3"/><stop offset="1" stop-color="#582fc0"/></linearGradient><linearGradient id="linear-gradient-2" y1="122.4324" x2="164.0527" y2="122.4324" gradientUnits="userSpaceOnUse"><stop offset="0" stop-color="#a18fff"/><stop offset="0.0516" stop-color="#b7a9ff"/><stop offset="0.1194" stop-color="#cdc4ff"/><stop offset="0.1973" stop-color="#e0daff"/><stop offset="0.2883" stop-color="#eeebff"/><stop offset="0.4009" stop-color="#f8f6ff"/><stop offset="0.5588" stop-color="#fdfdff"/><stop offset="0.9972" stop-color="#fff"/><stop offset="0.9972" stop-color="#f7f5fc"/><stop offset="0.9974" stop-color="#d6ccef"/><stop offset="0.9975" stop-color="#b8a6e4"/><stop offset="0.9977" stop-color="#9e86da"/><stop offset="0.9978" stop-color="#886ad2"/><stop offset="0.998" stop-color="#7654cb"/><stop offset="0.9982" stop-color="#6843c6"/><stop offset="0.9985" stop-color="#5f38c3"/><stop offset="0.9989" stop-color="#5a31c1"/><stop offset="1" stop-color="#582fc0"/></linearGradient><linearGradient id="linear-gradient-3" x1="39.879" y1="155.7647" x2="82.0264" y2="155.7647" gradientUnits="userSpaceOnUse"><stop offset="0" stop-color="#a18fff"/><stop offset="1" stop-color="#582fc0"/></linearGradient><linearGradient id="linear-gradient-4" x1="0.0003" y1="122.4355" x2="82.0264" y2="122.4355" xlink:href="#linear-gradient-3"/><linearGradient id="linear-gradient-5" x1="82.0264" y1="82.0489" x2="164.0524" y2="82.0489" xlink:href="#linear-gradient-3"/></defs><g class="cls-1"><g id="Layer_2" data-name="Layer 2"><g id="Layer_1-2" data-name="Layer 1"><path class="cls-2" d="M83.1707,0C37.1224,0,.5036,36.629.5036,82.8731s36.6188,80.5837,82.6671,80.5837c31.6994,0,48.362-16.3914,48.3369-16.3914,0,9.5235,9.1548,16.3914,15.7462,16.3914,9.4294,0,16.2953-6.8679,16.2953-16.3914V82.8731C163.5491,36.8839,129.463,0,83.1707,0Zm0,131.4065c-27.4642,0-50.6256-20.97-50.6256-48.5334S55.7065,32.05,83.1707,32.05s48.3369,23.26,48.3369,50.8228C131.5076,110.421,110.65,131.4065,83.1707,131.4065Z"/><path class="cls-3" d="M163.5491,115.6389V82.8731C163.5491,36.629,129.2185,0,83.1706,0S.5036,36.629.5036,82.8731c0,73.2141,86.318,101.8791,131.0045,64.1922a15.03,15.03,0,0,0,1.6558,6.8168A88.3184,88.3184,0,0,0,163.5491,115.6389ZM83.1706,131.4065c-27.4639,0-50.626-20.97-50.626-48.5334S55.7067,32.05,83.1706,32.05,131.5081,55.31,131.5081,82.8731,110.6345,131.4065,83.1706,131.4065Z"/><path class="cls-4" d="M164.0527,82.0489A82.0268,82.0268,0,1,0,0,82.4152V228.84a16.1015,16.1015,0,0,0,16.2954,16.0251A16.04,16.04,0,0,0,32.3162,228.84v-81.408C85.7018,188.0158,164.0527,150.4917,164.0527,82.0489Zm-32.4077,0a49.6644,49.6644,0,1,1-99.3288,0h0a49.6644,49.6644,0,0,1,99.3288,0Z"/><g class="cls-5"><path class="cls-6" d="M39.879,152.525a82.1407,82.1407,0,0,0,42.1474,11.5728c-15.8341,0-30.5047-6.2269-42.1474-16.6662Z"/><path class="cls-7" d="M0,82.0489V228.84c0,11.2488,11.2987,18.7667,21.6431,15.0892-5.3951-2.2141-9.1644-8.16-9.1644-15.0892V82.4152C12.479,37.95,42.86,0,82.0264,0,36.8939,0,0,36.9953,0,82.0489Z"/><path class="cls-8" d="M82.0264,0c38.4992,0,69.5473,36.9953,69.5473,82.0489,0,45.42-31.0481,82.0489-69.5473,82.0489A82.0489,82.0489,0,0,0,82.0264,0Z"/></g></g></g></g></svg>